<?xml version="1.0" encoding="utf-8"?>

<!DOCTYPE svg PUBLIC "-//W3C//DTD SVG 1.1//EN" "http://www.w3.org/Graphics/SVG/1.1/DTD/svg11.dtd">
<svg version="1.1" id="Layer_1" xmlns="http://www.w3.org/2000/svg" xmlns:xlink="http://www.w3.org/1999/xlink" x="0px" y="0px"
	 viewBox="0 0 1902.086 1649.582" enable-background="new 0 0 1902.086 1649.582" xml:space="preserve">
<g>
	<g>
		<path d="M1601.247,346.806C1100.163-32.076,476.129,34.754,28.586,430.269c498.771-510.057,1254.201-551.743,1819.805-51.923
			c70.991,62.726-23.872,170.238-94.937,107.447C1741.91,475.594,1683.463,409.276,1601.247,346.806z"/>
		<path d="M1577.723,651.574C1164.484,295.2,637.719,348.886,299.253,703.498c-65.442,68.564-169.282-30.412-103.773-99.047
			C485.771,300.321,1142.607,195.677,1577.723,651.574z"/>
		<path d="M1307.056,924.803c-237.778-261.5-582.466-259.991-835.859-51.923c251.307-276.408,640.97-292.998,926.025-58.95
			C1491.066,890.977,1373.979,997.374,1307.056,924.803z"/>
		<path d="M1135.112,1094.185c-122.734-86.827-283.626-87.675-393.248,51.923c-24.927,31.741-70.466,36.849-101.731,12.298
			C500.976,1049.13,919.094,819.156,1135.112,1094.185z"/>
	</g>
	<circle cx="951.043" cy="1440.722" r="184.07"/>
</g>
</svg>
